<svg height="512pt" viewBox="-85 0 512 512.00178" width="512pt" xmlns="http://www.w3.org/2000/svg"><path d="m341.679688 28.8125c0-8.613281 0-28.8125-170.816407-28.8125-170.8203122 0-170.8085935 20.199219-170.8085935 28.710938-.1601565 16.125-3.0546875 395.566406 69.8203125 469.15625 9.289062 9.375 19.667969 14.132812 30.863281 14.132812h140.257813c11.265625 0 21.714844-4.789062 31.050781-14.222656 73.023437-73.832032 69.800781-452.964844 69.632813-468.964844zm-321.578126 3.421875c31.121094-16.523437 270.40625-16.523437 301.539063 0 .3125 36.914063-.574219 93.699219-3.964844 154.894531-11.957031 11.796875-21.324219 17.378906-29.394531 17.457032-.050781 0-.109375 0-.171875 0-8.132813 0-17.476563-5.570313-29.414063-17.496094l-7.097656-7.097656-7.097656 7.097656c-12.160156 12.167968-22.761719 18.121094-32.398438 18.199218-.078124 0-.152343.011719-.21875.011719-9.507812 0-19.847656-5.722656-31.59375-17.480469l-7.097656-7.097656-7.101562 7.097656c-23.980469 23.996094-40.789063 24.167969-64.21875.734376l-7.097656-7.097657-7.101563 7.097657c-11.742187 11.753906-22.054687 17.355468-31.824219 16.773437-9.316406-.441406-19.683594-6.433594-31.640625-18.222656-3.453125-61.152344-4.386719-117.90625-4.105469-154.871094zm237.667969 451.425781c-5.5 5.550782-10.992187 8.261719-16.773437 8.261719h-140.257813c-5.710937 0-11.144531-2.679687-16.597656-8.183594-33.820313-34.152343-50.554687-155.226562-58.246094-269.0625 9.859375 6.757813 19.335938 10.25 28.980469 10.722657 13.253906.621093 26.414062-4.628907 39.867188-16.0625 13.171874 11.273437 25.902343 16.785156 38.703124 16.785156.140626 0 .28125-.007813.417969-.007813 12.921875-.121093 25.851563-5.855469 39.328125-17.480469 13.300782 11.386719 26.582032 16.714844 39.089844 16.746094 12.902344-.121094 25.8125-5.84375 39.273438-17.4375 13.121093 11.503906 24.636718 16.734375 36.523437 16.734375.128906 0 .25 0 .382813-.011719 9.046874-.078124 17.929687-3.242187 27.515624-9.867187-7.628906 113.6875-24.3125 234.597656-58.207031 268.863281zm0 0"/><path d="m213.578125 273.808594c0 5.546875-4.496094 10.042968-10.039063 10.042968-5.542968 0-10.039062-4.496093-10.039062-10.042968 0-5.542969 4.496094-10.039063 10.039062-10.039063 5.542969 0 10.039063 4.496094 10.039063 10.039063zm0 0"/><path d="m233.65625 324.007812c0 5.542969-4.496094 10.039063-10.039062 10.039063-5.546876 0-10.039063-4.496094-10.039063-10.039063 0-5.546874 4.492187-10.042968 10.039063-10.042968 5.542968 0 10.039062 4.496094 10.039062 10.042968zm0 0"/><path d="m263.773438 374.203125c0 5.542969-4.492188 10.039063-10.039063 10.039063-5.542969 0-10.039063-4.496094-10.039063-10.039063 0-5.546875 4.496094-10.039063 10.039063-10.039063 5.546875 0 10.039063 4.492188 10.039063 10.039063zm0 0"/><path d="m183.460938 344.082031c0 5.546875-4.496094 10.039063-10.039063 10.039063-5.546875 0-10.039063-4.492188-10.039063-10.039063 0-5.542969 4.492188-10.039062 10.039063-10.039062 5.542969 0 10.039063 4.496093 10.039063 10.039062zm0 0"/><path d="m253.734375 263.769531c0 5.546875-4.496094 10.039063-10.039063 10.039063-5.542968 0-10.039062-4.492188-10.039062-10.039063 0-5.542969 4.496094-10.039062 10.039062-10.039062 5.542969 0 10.039063 4.496093 10.039063 10.039062zm0 0"/><path d="m101.277344 355.058594c7.671875 0 14.929687-2.851563 20.519531-8.101563l22.007813-20.5625c12.125-11.335937 12.777343-30.429687 1.445312-42.554687l-20.5625-22.007813c-11.34375-12.125-30.4375-12.789062-42.566406-1.441406l-22.003906 20.558594c-5.863282 5.472656-9.246094 12.929687-9.519532 20.992187-.269531 8.050782 2.589844 15.710938 8.074219 21.574219l20.558594 21.996094c5.472656 5.863281 12.933593 9.246093 20.984375 9.515625.351562.019531.714844.03125 1.0625.03125zm-27.9375-45.25c-1.816406-1.9375-2.757813-4.496094-2.671875-7.195313.09375-2.703125 1.21875-5.183593 3.152343-7l22.007813-20.558593c1.9375-1.808594 4.394531-2.703126 6.855469-2.703126 2.691406 0 5.359375 1.066407 7.339844 3.171876l20.558593 22.007812c3.777344 4.035156 3.554688 10.398438-.480469 14.183594l-22.015624 20.582031c-1.9375 1.828125-4.476563 2.609375-7.191407 2.679687-2.699219-.089843-5.179687-1.214843-6.996093-3.152343zm0 0"/><path d="m215.042969 394.703125c-11.34375-12.128906-30.4375-12.78125-42.566407-1.445313l-22.003906 20.558594c-5.863281 5.472656-9.246094 12.933594-9.519531 20.992188-.269531 8.050781 2.589844 15.710937 8.074219 21.574218l20.558594 21.996094c5.925781 6.347656 13.964843 9.546875 22.015624 9.546875 7.371094 0 14.75-2.6875 20.550782-8.101562l21.996094-20.570313c5.863281-5.480468 9.238281-12.929687 9.519531-20.980468.28125-8.050782-2.589844-15.710938-8.074219-21.574219zm5.410156 49.902344-22.003906 20.570312c-4.042969 3.773438-10.410157 3.554688-14.195313-.492187l-20.558594-21.996094c-1.816406-1.9375-2.761718-4.5-2.671874-7.199219.089843-2.699219 1.214843-5.179687 3.152343-6.996093l22.003907-20.5625c1.9375-1.804688 4.398437-2.699219 6.859374-2.699219 2.6875 0 5.359376 1.0625 7.335938 3.171875l20.5625 22.003906c3.773438 4.050781 3.5625 10.417969-.484375 14.199219zm0 0"/><path d="m103.144531 405.253906c0 5.542969-4.492187 10.039063-10.039062 10.039063-5.542969 0-10.039063-4.496094-10.039063-10.039063 0-5.546875 4.496094-10.039062 10.039063-10.039062 5.546875 0 10.039062 4.492187 10.039062 10.039062zm0 0"/><path d="m123.226562 465.488281c0 5.542969-4.496093 10.039063-10.042968 10.039063-5.542969 0-10.039063-4.496094-10.039063-10.039063s4.496094-10.039062 10.039063-10.039062c5.546875 0 10.042968 4.496093 10.042968 10.039062zm0 0"/></svg>